<?xml version="1.0" encoding="UTF-8" standalone="no"?>
<!-- Created with Inkscape (http://www.inkscape.org/) -->
<svg
   xmlns:dc="http://purl.org/dc/elements/1.1/"
   xmlns:cc="http://web.resource.org/cc/"
   xmlns:rdf="http://www.w3.org/1999/02/22-rdf-syntax-ns#"
   xmlns:svg="http://www.w3.org/2000/svg"
   xmlns="http://www.w3.org/2000/svg"
   xmlns:sodipodi="http://sodipodi.sourceforge.net/DTD/sodipodi-0.dtd"
   xmlns:inkscape="http://www.inkscape.org/namespaces/inkscape"
   id="svg2"
   sodipodi:version="0.32"
   inkscape:version="0.45.1"
   width="267"
   height="49"
   version="1.0"
   sodipodi:docbase="C:\Users\manu\Desktop"
   sodipodi:docname="TeslaSignature.svg"
   inkscape:output_extension="org.inkscape.output.svg.inkscape">
  <metadata
     id="metadata7">
    <rdf:RDF>
      <cc:Work
         rdf:about="">
        <dc:format>image/svg+xml</dc:format>
        <dc:type
           rdf:resource="http://purl.org/dc/dcmitype/StillImage" />
      </cc:Work>
    </rdf:RDF>
  </metadata>
  <defs
     id="defs5" />
  <sodipodi:namedview
     inkscape:window-height="575"
     inkscape:window-width="753"
     inkscape:pageshadow="2"
     inkscape:pageopacity="0.0"
     guidetolerance="10.0"
     gridtolerance="10.0"
     objecttolerance="10.0"
     borderopacity="1.0"
     bordercolor="#666666"
     pagecolor="#ffffff"
     id="base"
     inkscape:zoom="5.0037453"
     inkscape:cx="104.57666"
     inkscape:cy="29.190273"
     inkscape:window-x="233"
     inkscape:window-y="137"
     inkscape:current-layer="svg2" />
  <g
     id="g4107"
     transform="translate(-4.5220961,1.1305238)">
    <path
       id="path2161"
       d="M 37.699476,39.008732 C 37.699476,38.298246 39.744391,35.710746 42.243731,33.258732 C 47.030197,28.562899 54.699476,17.554852 54.699476,15.380464 C 54.699476,14.67612 52.258026,16.331187 49.274031,19.05839 C 43.245714,24.567932 27.405992,34.393183 20.315608,37.021064 C 16.718974,38.354071 15.459536,38.460584 14.51093,37.511978 C 12.845195,35.846243 14.24213,34.804427 20.018096,33.404808 C 27.269308,31.64771 46.09022,19.354267 55.304716,10.356295 C 57.731006,7.9870174 59.699476,7.6833796 59.699476,9.6783999 C 59.699476,12.09221 56.862608,17.953202 54.112065,21.222037 C 50.906861,25.031206 51.437156,26.004656 55.556886,23.87426 C 59.423936,21.874531 61.699476,21.869078 61.699476,23.859541 C 61.699476,24.717 61.239137,25.134053 60.6765,24.786324 C 58.880522,23.676348 47.3361,30.985934 43.399704,35.725479 C 39.581279,40.322984 37.699476,41.406877 37.699476,39.008732 z M 157.69947,39.046334 C 157.69947,37.635882 175.18156,19.560072 180.38187,15.593599 C 187.35622,10.27401 184.68939,14.653214 175.23336,24.047992 C 169.84049,29.405927 164.31078,35.254629 162.94512,37.045108 C 160.44428,40.323872 157.69947,41.371024 157.69947,39.046334 z M 249.69947,39.252975 C 246.67447,38.821052 241.83214,37.530055 238.93874,36.384092 C 233.02024,34.040004 229.45533,33.792469 224.83104,35.404502 C 220.62776,36.869776 216.69947,35.84416 216.69947,33.281472 C 216.69947,30.832904 215.99509,30.821864 209.98649,33.176259 C 199.3134,37.358378 196.06683,36.759896 200.94947,31.510349 L 203.19947,29.091271 L 199.19947,30.800354 C 196.99947,31.74035 193.67309,33.17016 191.80752,33.977709 C 189.94195,34.785259 186.59961,35.664869 184.38009,35.932399 C 182.16057,36.199928 179.91819,36.5047 179.39703,36.60967 C 177.13584,37.06511 177.86095,34.476811 180.15592,33.900811 C 181.55487,33.549696 182.69947,32.874389 182.69947,32.400129 C 182.69947,30.811877 189.05716,25.300524 190.88931,25.300524 C 193.12658,25.300524 193.31157,28.547634 191.1753,30.32058 C 188.15883,32.824027 190.5749,32.306798 198.26286,28.803282 C 207.20499,24.728221 210.04274,24.777376 206.76018,28.950472 C 205.61139,30.410929 204.85907,31.793456 205.08837,32.022755 C 205.6612,32.59559 215.83077,28.276051 217.77821,26.632727 C 218.64652,25.900015 219.70771,25.300524 220.13642,25.300524 C 220.56512,25.300524 223.7435,23.050524 227.19947,20.300524 C 233.73111,15.103139 235.69947,14.28401 235.69947,16.763263 C 235.69947,17.567769 233.11197,19.990298 229.94947,22.146661 C 222.98681,26.89418 218.69947,30.795448 218.69947,32.383617 C 218.69947,34.169673 225.25445,32.795735 228.34988,30.360871 C 231.60872,27.797466 234.04152,27.644367 233.28143,30.050524 C 232.81316,31.5329 234.14097,32.147959 241.96404,34.072411 C 247.04353,35.321949 252.86041,36.334449 254.89045,36.322411 C 258.84194,36.298979 260.83926,37.964494 258.57759,39.397015 C 257.81962,39.877101 256.74947,40.217786 256.19947,40.154094 C 255.64947,40.090401 252.72447,39.684898 249.69947,39.252975 z M 169.69947,36.300524 C 169.69947,35.750524 170.14947,35.300524 170.69947,35.300524 C 171.24947,35.300524 171.69947,35.750524 171.69947,36.300524 C 171.69947,36.850524 171.24947,37.300524 170.69947,37.300524 C 170.14947,37.300524 169.69947,36.850524 169.69947,36.300524 z M 123.17464,35.260353 C 122.77103,34.607296 120.3783,34.463821 116.7454,34.874838 C 109.95482,35.643104 108.90186,34.74361 111.25804,30.187256 C 112.89473,27.022246 112.89317,27.0169 110.54891,27.762156 C 109.25672,28.172953 106.62447,28.749035 104.69947,29.04234 C 102.77447,29.335644 100.61389,30.410242 99.898194,31.430335 C 99.182484,32.450428 97.643109,33.795507 96.477356,34.419399 C 94.782096,35.326675 94.128459,35.240098 93.212099,33.9869 C 92.256067,32.679449 91.36904,32.597058 87.854155,33.489231 C 84.343339,34.380371 83.343668,34.288497 81.850837,32.937503 C 80.269727,31.506619 79.83348,31.487775 78.129615,32.776757 C 77.068039,33.579845 75.861976,34.251229 75.449476,34.268721 C 73.634524,34.345683 75.091807,31.605248 80.449476,24.866165 C 83.611976,20.888252 87.129956,16.345376 88.267209,14.770887 C 90.043423,12.311776 90.427915,12.150465 90.994404,13.626712 C 91.440694,14.789725 90.529855,16.589393 88.176672,19.194085 C 83.796698,24.042192 83.762437,25.042765 88.06751,22.382083 C 91.782668,20.08599 92.699476,19.853108 92.699476,21.205502 C 92.699476,21.70324 90.727198,23.266312 88.316636,24.678995 C 83.871398,27.284078 82.018493,29.76162 83.72614,30.817003 C 85.496425,31.9111 91.709268,30.076056 95.478143,27.345897 C 98.173018,25.39374 99.810294,24.835718 101.22329,25.387812 C 102.31019,25.81249 104.19863,26.191582 105.41983,26.230239 C 109.05115,26.345187 118.50783,21.478741 120.87504,18.276929 C 123.38302,14.884702 124.69947,14.48295 124.69947,17.109799 C 124.69947,18.1049 122.22447,21.055833 119.19947,23.667428 C 113.39088,28.682204 111.98917,32.300524 115.85508,32.300524 C 117.04066,32.300524 119.54522,31.13008 121.42076,29.699537 C 124.92984,27.023027 126.96525,27.070427 124.71953,29.776358 C 123.69908,31.005917 123.70133,31.597837 124.73114,32.838686 C 126.28559,34.711682 132.69942,34.008973 139.98649,31.167285 C 145.6996,28.939382 145.69947,28.939395 145.69947,30.646388 C 145.69947,31.459472 142.76466,32.844996 138.28579,34.146388 C 130.27939,36.472743 124.20088,36.92084 123.17464,35.260353 z M 61.699476,31.250864 C 61.699476,30.673551 62.41277,28.821845 63.284574,27.135962 C 64.341306,25.092468 65.203006,24.404054 65.869672,25.07072 C 66.536339,25.737387 66.332746,27.109021 65.258894,29.185622 C 63.692852,32.214013 61.699476,33.370608 61.699476,31.250864 z M 74.867668,18.665692 C 75.065227,17.63985 75.670703,16.913024 76.213171,17.050524 C 77.666576,17.41892 77.412576,19.562824 75.853973,20.082358 C 74.97778,20.374423 74.633757,19.88029 74.867668,18.665692 z M 170.12807,11.185001 C 168.76257,8.9755649 171.67342,8.4392326 187.46134,7.9912971 C 202.76627,7.557065 206.47549,8.063976 204.06234,10.260028 C 202.64979,11.545494 170.88597,12.411305 170.12807,11.185001 z "
       style="fill:#000000" />
    <path
       id="path3136"
       d="M 132.41263,28.933199 C 131.80471,28.558718 131.26496,31.494019 132.55394,30.205038 C 133.06783,29.691146 132.81043,29.596203 132.41263,28.933199 z "
       style="fill:#000000;fill-opacity:1;fill-rule:evenodd;stroke:#000000;stroke-width:1px;stroke-linecap:butt;stroke-linejoin:miter;stroke-opacity:1" />
  </g>
  <path
     style="fill:#ffffff;fill-rule:evenodd;stroke:#ffffff;stroke-width:1px;stroke-linecap:butt;stroke-linejoin:miter;stroke-opacity:1"
     d="M 183.21554,31.052931 C 182.68523,30.9387 182.5788,31.33474 183.00357,31.759509 C 183.30542,31.988991 183.99016,31.152122 183.21554,31.052931 z "
     id="path5082"
     sodipodi:nodetypes="ccc" />
  <path
     style="fill:#ffffff;fill-rule:evenodd;stroke:#ffffff;stroke-width:0.68539214px;stroke-linecap:butt;stroke-linejoin:miter;stroke-opacity:1"
     d="M 93.61616,30.467415 C 93.245911,30.390555 93.171604,30.657028 93.468168,30.942831 C 93.678913,31.097236 94.156982,30.534155 93.61616,30.467415 z "
     id="path6089"
     sodipodi:nodetypes="ccc" />
</svg>
